<svg width="33" height="32" viewBox="0 0 33 32" fill="none" xmlns="http://www.w3.org/2000/svg">
<path d="M13.6123 1.8125C14.2448 1.79644 14.9738 2.08788 15.293 2.80371C16.1045 4.62397 17.2405 6.79519 18.5039 8.1582C19.9061 9.67074 22.2422 11.0256 24.2656 12.0098C25.0179 12.3757 25.2574 13.1958 25.2002 13.8564C25.1429 14.5172 24.7673 15.2806 23.9756 15.5254C22.1629 16.0855 20.1931 16.9044 18.9697 18.0068C17.5041 19.3277 16.418 21.6784 15.6904 23.8027C15.4164 24.6027 14.6113 24.9487 13.9385 24.9814C13.2659 25.0141 12.4291 24.7475 12.0859 23.9697C11.2201 22.007 10.0356 19.8229 8.65332 18.4971C7.28343 17.1831 5.04945 16.0681 3.13184 15.2812C2.38638 14.9754 2.07848 14.2223 2.08105 13.5762C2.0837 12.9301 2.39754 12.1796 3.14355 11.8779C5.07101 11.0987 7.30516 9.9839 8.64453 8.64453C10.0469 7.24213 11.2007 4.86107 11.9814 2.88281C12.2681 2.15637 12.9801 1.82867 13.6123 1.8125Z" stroke="white" stroke-width="1.13057"/>
<path d="M22.6934 21.6907C23.4525 20.9315 24.0574 19.6701 24.4563 18.6593C24.6413 18.1906 25.4062 18.1704 25.6114 18.6307C26.0263 19.5613 26.6203 20.7039 27.2979 21.4349C28.0504 22.2468 29.2816 22.9559 30.3164 23.4593C30.793 23.691 30.7159 24.5587 30.2096 24.7152C29.2795 25.0026 28.2256 25.4339 27.5537 26.0394C26.7489 26.7646 26.1772 28.0233 25.8047 29.1108C25.6307 29.6189 24.7219 29.6643 24.5051 29.1729C24.0617 28.1678 23.4401 27.0115 22.6934 26.2952C21.9543 25.5863 20.7733 25.0022 19.7924 24.5997C19.315 24.4038 19.3186 23.5931 19.7971 23.3997C20.783 23.0011 21.9677 22.4164 22.6934 21.6907Z" stroke="white" stroke-width="1.13057"/>
</svg>
