<svg width="29" height="30" viewBox="0 0 29 30" fill="none" xmlns="http://www.w3.org/2000/svg">
<path d="M21.7401 0C22.4402 0.0387231 23.0881 0.878108 23.5641 1.35702L25.4117 3.20871L27.0143 4.80449C27.727 5.51541 28.7711 6.30034 27.758 7.32627C26.1314 8.97296 24.4832 10.5995 22.8503 12.2398C22.3004 12.7921 21.6225 13.1911 20.9454 12.5156C20.7246 12.298 20.6019 12 20.6056 11.6901C20.614 11.034 21.5024 10.3347 21.9552 9.88186L24.3166 7.52713C23.9038 7.47809 23.5842 7.4031 23.1404 7.37706C21.417 7.26682 19.7049 7.72489 18.2668 8.68099C16.289 9.98772 14.9992 12.1106 14.751 14.4681C14.6343 15.5206 14.7241 16.2338 14.482 17.3522C13.8816 20.1253 12.36 22.3202 10.0112 23.8829C7.91169 25.2255 5.39984 25.7693 2.93307 25.4154C1.94569 25.2699 -0.104722 25.0014 0.123553 23.6129C0.168151 23.3294 0.326276 23.0762 0.561502 22.9118C1.29513 22.4031 2.07791 23.0444 2.86223 23.1514C5.1054 23.4573 7.15966 23.0428 9.03269 21.7491C10.8863 20.4575 12.0918 18.4284 12.3398 16.1828C12.4551 15.1918 12.3855 14.487 12.5816 13.4203C13.0841 10.7547 14.6193 8.39556 16.8528 6.85643C18.8847 5.45834 21.7287 4.73419 24.1615 5.18452C23.0251 4.10286 21.884 2.92914 20.8048 1.79048C20.6911 1.67046 20.6034 1.38124 20.5918 1.21572C20.5719 0.920553 20.6704 0.629623 20.8654 0.407175C21.1249 0.108334 21.3721 0.0298505 21.7401 0Z" fill="white"/>
<path d="M21.5572 17.1547L21.6021 17.1523C22.1641 17.1247 22.4188 17.3511 22.7918 17.7282C23.0977 18.0375 23.411 18.3484 23.719 18.6565L27.1771 22.114C27.4261 22.3613 27.7514 22.65 27.958 22.9282C28.3245 23.4214 28.1795 24.0451 27.7762 24.4515C26.6568 25.5792 25.5341 26.6977 24.4127 27.8205L23.1977 29.0362C22.7902 29.4433 22.3747 29.9907 21.7573 29.9999C20.8791 30.0129 20.2799 28.979 20.7873 28.2526C21.0529 27.8725 21.5276 27.4491 21.8622 27.1153L23.7728 25.2123L22.7001 25.1398C20.7188 24.9516 18.8408 24.1683 17.3129 22.8928C17.1023 22.7163 16.8675 22.5086 16.6768 22.3078C16.074 21.6732 15.004 20.7824 15.8147 19.8565C16.015 19.6285 16.2993 19.4916 16.6024 19.4772C17.4131 19.4398 17.7951 20.2434 18.3782 20.7802C19.6396 21.9555 21.2516 22.685 22.9671 22.8569C23.544 22.9108 24.0988 22.8902 24.6755 22.8669C23.4467 21.5444 22.0822 20.326 20.8555 19.0005C20.7456 18.8818 20.6528 18.6812 20.618 18.5248C20.5532 18.2269 20.6122 17.9155 20.7816 17.6621C20.9701 17.3795 21.229 17.2214 21.5572 17.1547Z" fill="white"/>
<path d="M3.71724 5.07532C6.17516 4.85286 8.87392 5.3999 10.7063 7.10389C11.5658 7.90319 12.1822 8.89339 10.7604 9.57237C10.1982 9.84087 9.57425 9.22359 9.18727 8.91373C8.9905 8.75842 8.73812 8.6143 8.49129 8.47755C6.773 7.51545 4.76467 7.09139 2.82338 7.49064C2.29 7.56786 1.80434 7.89018 1.28149 7.97244C0.674802 8.08404 0.0231542 7.35465 0.000786992 6.80072C-0.0538448 5.44768 2.75092 5.14521 3.71724 5.07532Z" fill="white"/>
</svg>
