<svg width="36" height="37" viewBox="0 0 36 37" fill="none" xmlns="http://www.w3.org/2000/svg">
<path d="M34.75 35.6689H15.2276M0.75 35.6689H4.10163M4.10163 35.6689V29.5016C4.10163 29.1514 4.38554 28.8674 4.73577 28.8674H7.03862M4.10163 35.6689H15.2276M15.2276 35.6689V29.5016C15.2276 29.1514 14.9437 28.8674 14.5935 28.8674H7.03862M7.03862 28.8674V27.8157M11.565 28.2364V23.2229M11.565 23.2229L7.03862 27.8157M11.565 23.2229V21.0843M7.03862 27.8157V16.4916M7.03862 16.4916L11.565 21.0843M7.03862 16.4916V15.0892M11.565 21.0843V10.4964M11.565 10.4964L7.03862 15.0892M11.565 10.4964V8.63831M7.03862 15.0892V4.04556M7.03862 4.04556V1.38415C7.03862 1.03392 7.32253 0.75 7.67276 0.75H10.9309C11.2811 0.75 11.565 1.03392 11.565 1.38415V2.50296M7.03862 4.04556L11.565 8.63831M11.565 8.63831V7.34112M11.565 2.50296V7.34112M11.565 2.50296L15.9679 6.97031M11.565 2.50296L22.5255 2.81065M11.565 7.34112L15.9679 6.97031M27.477 6.00101L18.6484 6.74456L15.9679 6.97031M18.6484 6.74456L22.5255 2.81065M27.477 6.00101L28.4679 5.91756C28.7963 5.8899 29.0488 5.61525 29.0488 5.28565V3.61038C29.0488 3.26708 28.7756 2.98612 28.4324 2.97648L24.3841 2.86283L22.5255 2.81065M24.3841 2.86283L27.477 6.00101M27.477 8.25266L28.7352 8.98971C28.9294 9.1035 29.0488 9.31175 29.0488 9.53688V11.3233C29.0488 11.4899 28.9832 11.6498 28.8663 11.7684L27.9912 12.6564C27.872 12.7773 27.7093 12.8454 27.5395 12.8454H27.462M26.124 11.5833L26.3326 12.3732C26.4061 12.6515 26.6579 12.8454 26.9457 12.8454H27.1311M27.1311 12.8454L24.0796 18.2083C23.839 18.631 24.1443 19.1561 24.6307 19.1561H29.9624C30.4488 19.1561 30.7541 18.631 30.5136 18.2083L27.462 12.8454M27.1311 12.8454H27.462" stroke="white" stroke-width="1.5" stroke-linecap="round"/>
</svg>
