<svg width="30" height="26" viewBox="0 0 30 26" fill="none" xmlns="http://www.w3.org/2000/svg">
<path d="M0 23.5438V8.12579C0.021221 8.06365 0.0382501 8.00015 0.0509728 7.93573C0.223762 6.69164 1.21903 5.64627 2.44842 5.48816C2.91236 5.42855 3.39099 5.4778 3.86789 5.4778C3.89294 5.35857 3.918 5.2765 3.92837 5.19269C4.03118 4.34948 4.14176 3.508 4.23075 2.66306C4.41304 0.926527 5.82991 -0.187964 7.56212 0.0262945C8.83558 0.186989 10.1082 0.32522 11.3868 0.469499C13.8519 0.748842 16.3165 1.02646 18.7805 1.30234C21.4751 1.60732 24.168 1.92352 26.8644 2.2164C28.6148 2.40733 29.839 3.79224 29.6602 5.45361C29.4208 7.68 29.1599 9.9038 28.9085 12.1285C28.6208 14.6693 28.3279 17.2093 28.0446 19.7511C27.8951 21.1031 27.318 22.1278 25.9305 22.5157C25.6316 22.6021 25.5633 22.7274 25.5789 23.0107C25.6027 23.3586 25.5557 23.7077 25.4408 24.0369C25.3258 24.3661 25.1453 24.6686 24.9102 24.9261C24.2302 25.6924 23.3646 26.0026 22.3563 26C19.2755 25.9948 16.1941 25.9948 13.1121 26C9.70298 26 6.29385 26 2.88472 26C1.89032 26 1.05488 25.6544 0.506273 24.8155C0.266096 24.4388 0.165878 23.9697 0 23.5438ZM1.44538 18.7135C1.59657 18.6055 1.69679 18.5355 1.79528 18.4629C3.22425 17.4262 4.65322 16.3877 6.08218 15.3475C7.49906 14.322 9.05762 14.3972 10.3708 15.5566C11.589 16.629 12.8063 17.7015 14.0227 18.7739C14.7787 19.4383 15.5433 19.5152 16.4158 19.0081C18.9178 17.552 21.4195 16.096 23.921 14.64C23.9974 14.6042 24.061 14.5457 24.1027 14.4723C24.1445 14.399 24.1625 14.3144 24.1542 14.2304C24.1473 12.3764 24.1542 10.5215 24.1464 8.66749C24.1479 8.4653 24.1202 8.26396 24.0644 8.06964C23.8337 7.31714 23.2212 6.90417 22.3633 6.90417C15.9015 6.90417 9.44006 6.90417 2.97889 6.90417C2.902 6.90417 2.82424 6.90417 2.74735 6.90417C2.58747 6.90764 2.42997 6.94358 2.28442 7.00982C2.13887 7.07607 2.00831 7.17122 1.90068 7.28949C1.56115 7.6463 1.44365 8.07914 1.44452 8.56209C1.44452 11.8555 1.44452 15.1488 1.44452 18.4422L1.44538 18.7135ZM24.1499 16.202C24.0022 16.2884 23.9106 16.3333 23.8207 16.3851C21.6246 17.6563 19.4281 18.9263 17.2314 20.1951C17.0178 20.3263 16.7935 20.4393 16.561 20.5329C15.2487 21.0202 14.0737 20.7437 13.037 19.8418C11.7972 18.7653 10.5747 17.6689 9.33926 16.5881C8.60059 15.9428 7.80749 15.859 7.06622 16.3955C5.22774 17.7251 3.40568 19.0737 1.58189 20.4249C1.54363 20.457 1.51227 20.4965 1.4897 20.5411C1.46713 20.5856 1.45382 20.6343 1.45057 20.6841C1.44193 21.5628 1.43674 22.4423 1.45057 23.3209C1.45669 23.5987 1.55523 23.8666 1.73062 24.0822C1.90601 24.2978 2.14825 24.4489 2.41905 24.5114C2.61845 24.548 2.8212 24.5631 3.02381 24.5563C9.44639 24.5563 15.8684 24.5563 22.2898 24.5563C22.4151 24.5563 22.5412 24.5563 22.6656 24.5416C23.616 24.4604 24.1464 23.8807 24.1473 22.9278V16.202H24.1499ZM5.33401 5.45879H5.71069C11.2641 5.45879 16.8179 5.45879 22.3719 5.45879C22.8848 5.44476 23.3932 5.55784 23.8518 5.78795C25.0113 6.39272 25.5797 7.3707 25.5849 8.67354C25.5895 12.7013 25.5895 16.729 25.5849 20.7567V21.1308C26.1033 20.9217 26.4342 20.6124 26.4955 20.094C26.7547 17.9186 27.0001 15.7415 27.2532 13.5652C27.5717 10.8242 27.8911 8.0826 28.2113 5.34043C28.3063 4.52227 27.8078 3.83543 26.9897 3.71967C25.8242 3.55552 24.6527 3.43802 23.4829 3.30152C20.8957 3.00086 18.3093 2.69848 15.7238 2.39437C12.9534 2.07471 10.1828 1.7562 7.4118 1.43885C6.48565 1.33085 5.78844 1.80775 5.65712 2.7149C5.5258 3.62204 5.44286 4.51536 5.33401 5.45879Z" fill="white"/>
</svg>
