<svg width="24" height="26" viewBox="0 0 24 26" fill="none" xmlns="http://www.w3.org/2000/svg">
<path d="M10.4658 0.677246C10.7796 0.593164 11.1089 0.702668 11.3105 0.946777L11.3887 1.05908L14.6621 6.729C15.9858 7.06733 17.8439 7.66004 19.4141 8.42529C20.237 8.8264 21.0145 9.29066 21.5957 9.81299C22.1633 10.3231 22.6455 10.9813 22.6455 11.771V23.6011C22.6455 24.0665 22.2663 24.4192 21.8262 24.4194H1.46875C1.01601 24.4193 0.648644 24.0518 0.648438 23.5991V9.33057C0.648438 9.03759 0.804915 8.76618 1.05859 8.61963L2.01855 8.06592V3.56982C2.01866 3.19883 2.2677 2.87405 2.62598 2.77783L10.4658 0.677246Z" stroke="#483E2D" stroke-width="1.29807" stroke-linecap="round"/>
<path d="M10.8174 1.27002V21.6065M14.2789 6.11311V21.1738" stroke="#483E2D" stroke-width="1.29807" stroke-linecap="round"/>
</svg>
