<svg width="40" height="39" viewBox="0 0 40 39" fill="none" xmlns="http://www.w3.org/2000/svg">
<path d="M14.8543 0.0144926C14.943 0.00725001 15.0646 0.00166036 15.1528 0.00155162C16.706 -0.000166593 18.2619 0.00142119 19.8149 0.00142119L29.2281 0.00131234L34.9098 0.000420601L36.7243 0.000529454C37.0799 0.000616452 37.4332 -0.00382036 37.7885 0.0115565C38.1397 0.0267594 38.4191 0.257282 38.4288 0.62561C38.4417 1.10332 38.4359 1.58335 38.4357 2.06166L38.4344 4.76093L38.4346 13.079L38.435 27.339C38.4352 29.8478 38.4602 32.4003 38.4314 34.9063C38.9901 34.9011 39.8007 34.8067 39.8175 35.5862C39.833 36.3037 39.8259 37.0162 39.8274 37.7359C39.8287 38.302 39.9039 38.9547 39.1368 38.9895C38.5699 39.0067 37.9984 38.9976 37.4304 38.9976L34.3867 38.9974H24.9979H16.5305L13.7834 38.9984C13.2911 38.9987 12.7998 39.0037 12.3062 38.991C12.0184 38.9837 11.7219 38.8288 11.6587 38.52C11.6412 38.4097 11.6232 38.2831 11.6243 38.1713C11.6335 37.2918 11.5923 36.3885 11.643 35.5126C11.6838 34.8097 12.4621 34.9126 12.9727 34.9145L14.2892 34.9189C14.2756 34.6923 14.2857 34.3549 14.2856 34.1222L14.2858 32.5952L14.2865 27.9319L14.2851 23.7597L14.2842 22.4027C14.284 21.8812 14.154 20.9609 14.8994 20.9348C15.0878 20.929 15.2699 21.0033 15.4015 21.1397C15.5263 21.2706 15.5713 21.4309 15.5744 21.6091C15.5848 22.2074 15.5774 22.8199 15.5767 23.4178L15.5767 26.9597L15.578 32.1162C15.5783 33.011 15.6016 34.0074 15.5709 34.8924C17.4057 34.9359 19.3636 34.8976 21.2105 34.9013C20.8044 34.1853 21.0806 33.3116 21.284 32.5891L21.6666 31.2308L23.0745 26.2004C23.136 26.0349 23.2349 25.6358 23.2861 25.4529L23.7126 23.9332L24.2883 21.8812C24.3537 21.6476 24.6075 20.8293 24.5922 20.6543C24.5232 19.8661 24.3012 18.906 24.2015 18.1258C23.5098 18.7393 23.0678 19.7762 22.066 19.8815C21.7116 19.9187 21.2952 19.9265 20.9354 19.9365C20.4108 19.9513 19.5718 20.0635 19.0773 19.9746C18.8025 19.9261 18.5432 19.8117 18.321 19.6412C17.9376 19.346 17.6867 18.936 17.6223 18.4512C17.5538 17.9535 17.6865 17.4488 17.9904 17.0513C18.4861 16.4036 19.1177 16.3811 19.8596 16.3072C20.2732 16.2661 20.716 16.2265 21.1257 16.1739C21.2636 16.0408 21.4268 15.8179 21.5488 15.6624L22.2045 14.827L22.9603 13.8683C23.0736 13.7242 23.2822 13.4748 23.3663 13.3247C23.3029 12.9072 23.2833 12.5729 23.3767 12.155C23.5203 11.5009 23.9176 10.9324 24.4793 10.577C25.0602 10.2194 25.7568 10.1072 26.4188 10.2648C27.4376 10.5112 27.8727 11.2641 28.046 12.2237C28.0925 12.4979 28.2327 12.8651 28.2682 13.1288C28.3495 13.7314 28.5831 13.7829 29.0457 14.1103L30.22 14.9423C31.1828 15.6254 31.4252 15.7677 31.5949 16.9977C31.7339 18.0065 31.9681 19.0598 32.0988 20.0742C32.1253 20.2795 32.1049 20.534 32.0535 20.7328C31.9349 21.1891 31.6409 21.5784 31.237 21.8144C30.7463 22.1047 30.2931 22.1102 29.7591 21.9655C29.6597 22.3505 29.4619 22.7135 29.3855 23.105C29.3188 23.4469 29.6999 25.0392 29.7881 25.4835L30.0389 26.7428C30.069 26.8929 30.1815 27.4921 30.2408 27.5865C30.4514 27.9206 30.9097 28.3784 31.1796 28.6744L33.4454 31.1765C33.9216 31.7037 35.018 32.7937 35.2746 33.3627C35.4862 33.8314 35.481 34.4213 35.3057 34.8989C35.9204 34.8969 36.5351 34.8984 37.1498 34.9032C37.1274 34.5159 37.1508 33.8647 37.151 33.4504L37.1519 30.39V20.9831V7.93555L37.1515 3.6855C37.151 2.91746 37.1334 2.08211 37.1564 1.31866L22.2482 1.31553L17.7618 1.31577C17.0827 1.31585 16.2366 1.3416 15.5756 1.31611L15.5787 3.56753C15.579 3.87157 15.5975 4.43347 15.5713 4.70753C15.563 4.80199 15.5378 4.89414 15.4969 4.97951C15.4213 5.1365 15.2986 5.24716 15.1336 5.29979C14.9541 5.35571 14.7597 5.33392 14.5967 5.23963C14.4826 5.17321 14.3571 5.04413 14.3316 4.91102C14.2679 4.57797 14.2849 4.19083 14.2848 3.84973L14.2845 2.51231C14.2846 2.02241 14.2829 1.53076 14.285 1.041C14.2872 0.528955 14.2696 0.141401 14.8543 0.0144926ZM26.5855 27.2237C27.0423 25.8496 27.5247 24.4815 28 23.1135C28.117 22.7766 28.6906 21.25 28.6945 21.0046C28.699 20.7256 28.4936 20.0635 28.4239 19.7643C28.2925 19.1984 28.191 18.6 28.0153 18.0477C27.6254 17.786 26.8662 17.4197 26.5709 17.1307C26.472 17.0341 26.3975 16.9192 26.3724 16.781C26.3408 16.608 26.3939 16.4339 26.4924 16.292C26.5917 16.1485 26.7371 16.0506 26.9103 16.0278C27.0156 16.014 27.0941 16.0261 27.1937 16.0617C27.4796 16.1637 28.7349 16.9264 28.9846 17.1321C29.0474 17.1839 29.0954 17.2312 29.1337 17.3032C29.1386 17.3127 29.144 17.3219 29.1491 17.3314C29.3059 17.6269 29.658 19.3891 29.7589 19.8291C29.8094 20.0483 29.8438 20.3291 29.9572 20.5244C30.0139 20.6221 30.1075 20.6893 30.2137 20.723C30.3303 20.7598 30.4684 20.7571 30.5761 20.6943C30.666 20.6419 30.7809 20.5286 30.805 20.4222C30.8579 20.189 30.3432 17.217 30.2514 16.8074C30.2318 16.7196 30.2088 16.5936 30.1555 16.5218C30.0056 16.3194 29.6264 16.1206 29.4154 15.9708C28.9089 15.6039 28.4001 15.2404 27.8888 14.8803C27.5527 14.6427 26.1911 13.7349 26.01 13.4844C25.933 13.3778 25.91 13.2305 25.9188 13.1015C25.9315 12.9158 26.0111 12.7382 26.1551 12.6197C26.3177 12.4861 26.515 12.4736 26.7154 12.5007C26.7393 12.504 26.7629 12.5081 26.7868 12.5122C26.6255 11.7979 26.4814 11.4183 25.6327 11.5195C24.9667 11.6245 24.5258 12.195 24.6114 12.8637C24.6757 13.3655 24.7796 13.9047 24.8637 14.4052L25.4975 18.1334L25.7252 19.4696C25.9427 20.7471 25.9401 20.7745 25.5902 22.0145L25.1604 23.5432L23.29 30.2138L22.6807 32.387C22.5656 32.7977 22.2639 33.6792 22.2942 34.0746C22.3598 34.9319 23.6537 35.226 24.0782 34.445C24.2245 34.1951 24.3228 33.844 24.4197 33.56L24.8394 32.3307L26.5855 27.2237ZM23.6528 15.0961C23.222 15.5769 22.8454 16.1369 22.4323 16.6354C22.231 16.862 21.9729 17.3187 21.6789 17.4099C21.2672 17.5376 20.7562 17.5018 20.3386 17.58C19.876 17.6666 18.8691 17.5297 18.8904 18.2117C18.8973 18.432 19.0281 18.5657 19.2053 18.6567C19.5185 18.7285 21.692 18.6197 22.0512 18.5482C22.3297 18.3021 22.742 17.8008 22.9992 17.5032C23.2483 17.215 23.6825 16.7624 23.8973 16.4708C23.8741 16.2938 23.7199 15.1601 23.6528 15.0961ZM29.6941 34.8995L31.3407 34.8993C30.9555 34.5237 30.5176 34.0095 30.1471 33.603L27.8383 31.0705C27.6811 30.8989 27.0821 30.2079 26.9554 30.1381C26.6444 31.1084 26.2706 32.1071 25.9467 33.0782C25.8048 33.5036 25.482 34.52 25.3067 34.8982L29.6941 34.8995ZM28.4813 25.7667L27.4867 28.6718C27.691 29.0354 28.3087 29.6646 28.6199 30.0048L30.2219 31.7613L32.0003 33.7151C32.2961 34.0402 32.5954 34.3767 32.8998 34.6942C32.9942 34.7925 33.0894 34.8312 33.2125 34.88C33.682 34.9272 34.079 34.7858 34.1547 34.2316C34.1981 33.9119 33.9194 33.6174 33.7149 33.3962L30.6776 30.05L29.8008 29.085C29.432 28.6794 29.078 28.3429 28.9442 27.7853C28.8334 27.3237 28.7551 26.86 28.6607 26.3953C28.6321 26.2539 28.5811 25.8404 28.4813 25.7667ZM12.9057 37.6763C14.872 37.7128 16.9124 37.6835 18.8878 37.6835L30.0909 37.683L35.8862 37.6828L37.6302 37.6837C37.8264 37.6841 38.335 37.698 38.5096 37.6787L38.5352 37.65L38.5309 37.6237C38.5367 37.1921 38.5208 36.6358 38.5417 36.2269L20.5676 36.2454C18.5467 36.2602 16.5256 36.253 14.5048 36.2241C14.1669 36.2165 13.8264 36.2252 13.4885 36.2249C13.3101 36.2247 13.0877 36.2395 12.9143 36.2206C12.9163 36.6382 12.9336 37.2754 12.9057 37.6763Z" fill="white"/>
<path d="M6.60275 5.81497C7.57053 5.7224 7.39915 6.65794 7.39838 7.30471L7.39415 9.1123C8.59094 9.37262 9.96153 9.5026 11.1727 9.74724C11.1617 9.58588 11.1769 9.36189 11.1639 9.1999C11.1108 8.53633 11.7274 8.1592 12.2632 8.59696C12.38 8.69238 12.4395 8.88565 12.4415 9.0456C12.4496 9.66919 12.4463 10.2944 12.4451 10.9189L12.4442 14.0849L12.4466 15.8827C12.4463 16.1787 12.4507 16.4937 12.4306 16.7891C12.4136 16.9097 12.3264 17.0414 12.2458 17.1243C11.9801 17.3936 11.5748 17.3601 11.3226 17.0906C11.1531 16.9095 11.1607 16.6479 11.1623 16.4173C11.1633 16.2704 11.1685 16.1232 11.1724 15.9765C10.8823 16.0084 10.4963 16.0832 10.2 16.1322L8.44528 16.4239C8.13754 16.4764 7.70262 16.5657 7.40076 16.5904C7.37406 17.3054 7.39669 18.1543 7.39699 18.8795C7.40005 19.2601 7.43622 19.6593 7.02302 19.8614C6.76684 19.9867 6.44247 19.8776 6.25732 19.6854C6.02803 19.4475 5.8028 19.1967 5.57223 18.9581L3.45676 16.7397L1.4853 14.6715C1.03313 14.2003 0.432204 13.6252 0.0382467 13.0927C-0.0205188 13.0133 -0.00675199 12.6824 0.046883 12.6015C0.290432 12.2345 0.645248 11.9157 0.951987 11.5941L2.24042 10.2409L4.9418 7.40925C5.37453 6.95727 5.79519 6.4888 6.24073 6.04809C6.36991 5.9203 6.42904 5.86903 6.60275 5.81497ZM1.51219 12.8535C1.87701 13.2513 2.26204 13.6527 2.63996 14.0389C3.80952 15.2339 4.93521 16.4976 6.11813 17.6771L6.12038 17.0974C6.11839 16.8464 6.11869 16.5769 6.11591 16.328C6.10849 15.6658 6.24746 15.4941 6.892 15.383C8.30663 15.1392 9.74261 14.9425 11.1543 14.6858C11.2011 13.4827 11.1415 12.2313 11.1702 11.0266C10.5242 10.9328 9.86741 10.82 9.22405 10.7083C8.3443 10.5554 7.45364 10.4402 6.58069 10.2617C6.46498 10.238 6.28881 10.1116 6.22072 10.0143C5.99754 9.76577 6.20634 8.21601 6.08744 8.05929C4.76037 9.40044 3.48643 10.8081 2.17007 12.1608C1.95124 12.3857 1.72222 12.6211 1.51219 12.8535Z" fill="white"/>
<path d="M24.5373 3.33609C26.364 3.1637 28.003 4.32234 28.1942 5.92107C28.3854 7.51978 27.056 8.95029 25.2284 9.11255C23.4089 9.27408 21.783 8.11721 21.5925 6.52567C21.4022 4.9341 22.719 3.5077 24.5373 3.33609ZM25.0147 7.87023C26.0601 7.81085 26.85 7.01782 26.7743 6.10369C26.6987 5.18958 25.7865 4.50432 24.7424 4.57724C23.7092 4.6494 22.936 5.43739 23.0107 6.342C23.0857 7.24659 23.9804 7.92897 25.0147 7.87023Z" fill="white"/>
<path d="M14.7845 8.30035C15.1186 8.28227 15.4597 8.36084 15.6455 8.58813C15.7227 8.68264 15.7613 8.97303 15.7625 9.08832C15.7687 9.71494 15.7647 10.3421 15.7646 10.9688L15.7639 14.7235L15.7654 16.6683C15.7656 16.9327 15.7681 17.198 15.7612 17.4623C15.7512 17.8458 15.6997 18.029 15.2241 18.2219C14.9551 18.2728 14.8231 18.2679 14.5621 18.191C14.4194 18.149 14.1792 17.9765 14.1615 17.8742C14.0841 17.4268 14.1109 16.8217 14.111 16.3729L14.1118 13.5292L14.1105 10.4977C14.11 9.95722 14.1014 9.40756 14.1209 8.86781C14.124 8.78126 14.1798 8.65498 14.2399 8.58266C14.3893 8.40268 14.5355 8.35321 14.7845 8.30035Z" fill="white"/>
</svg>
